<?xml version="1.0" encoding="UTF-8" standalone="no"?>
<!DOCTYPE svg PUBLIC "-//W3C//DTD SVG 1.1//EN" "http://www.w3.org/Graphics/SVG/1.1/DTD/svg11.dtd">
<svg width="100%" height="100%" viewBox="0 0 338 338" version="1.1" xmlns="http://www.w3.org/2000/svg" xmlns:xlink="http://www.w3.org/1999/xlink" xml:space="preserve" xmlns:serif="http://www.serif.com/" style="fill-rule:evenodd;clip-rule:evenodd;stroke-linejoin:round;stroke-miterlimit:2;">
    <g id="Artboard1" transform="matrix(1,0,0,1,-85.4914,-32.0349)">
        <rect x="85.491" y="32.035" width="337.112" height="337.112" style="fill:none;"/>
        <clipPath id="_clip1">
            <rect x="85.491" y="32.035" width="337.112" height="337.112"/>
        </clipPath>
        <g clip-path="url(#_clip1)">
            <g transform="matrix(1,0,0,1,52.7407,4.26326e-14)">
                <path d="M220.254,365.248C159.319,382.134 96.881,342.39 87.054,280.516C81.315,244.379 91.395,212.92 117.103,186.847C144.465,159.096 172.171,131.686 199.722,104.122C209.796,94.043 221.761,91.12 234.999,96.036C247.549,100.697 254.291,110.501 255.46,123.729C256.364,133.954 252.347,142.533 245.125,149.737C223.894,170.916 202.708,192.14 181.505,213.348C175.026,219.828 168.527,226.29 162.078,232.799C148.233,246.774 145.813,268.248 156.138,285.215C166.111,301.603 186.793,308.758 205.961,302.451C223.68,296.621 235.545,278.576 233.876,259.233C232.995,249.014 228.89,240.096 221.593,232.582C212.702,223.427 210.306,212.277 214.006,200.248C217.624,188.485 226.054,181.238 238.035,178.668C249.048,176.306 258.893,179.24 266.916,187.185C324.758,244.462 299.052,343.22 220.254,365.248Z" style="fill:rgb(230,230,230);fill-rule:nonzero;"/>
            </g>
            <g transform="matrix(1.12747,0,0,1.12747,99.7653,-119.316)">
                <circle cx="204.79" cy="169.009" r="34.77" style="fill:rgb(230,230,230);"/>
            </g>
        </g>
    </g>
</svg>
