<?xml version="1.0" encoding="UTF-8" standalone="no"?>
<!DOCTYPE svg PUBLIC "-//W3C//DTD SVG 1.1//EN" "http://www.w3.org/Graphics/SVG/1.1/DTD/svg11.dtd">
<svg width="100%" height="100%" viewBox="0 0 800 800" version="1.1" xmlns="http://www.w3.org/2000/svg" xmlns:xlink="http://www.w3.org/1999/xlink" xml:space="preserve" xmlns:serif="http://www.serif.com/" style="fill-rule:evenodd;clip-rule:evenodd;stroke-linejoin:round;stroke-miterlimit:2;">
    <path d="M400,0C620.766,0 800,179.234 800,400C800,620.766 620.766,800 400,800C179.234,800 0,620.766 0,400C0,179.234 179.234,0 400,0ZM145.658,494.035C125.791,507.24 132.451,532.445 174.796,544.369C219.138,559.134 266.439,562.772 312.518,554.963C315.168,554.963 317.819,553.642 319.121,553.642L319.121,508.599L274.088,523.172C256.872,528.474 239.647,529.776 222.433,525.824C209.226,521.853 211.839,513.901 227.734,507.278L319.178,475.451L319.178,426.4L192.021,470.112C175.436,475.672 159.799,483.74 145.658,494.035ZM452.955,295.348L452.955,423.834C507.261,450.323 549.652,423.834 549.652,354.974C549.652,284.773 524.486,252.984 451.635,227.817C413.224,214.611 373.483,202.651 333.722,194.707L333.722,577.478L426.439,605.296L426.439,283.425C426.439,268.851 426.439,258.257 437.033,262.228C451.635,266.209 452.955,280.774 452.955,295.348ZM625.155,463.566C586.743,450.36 545.681,445.021 505.94,448.992C484.745,450.313 464.878,455.595 446.334,462.198L442.362,463.519L442.362,515.173L528.457,483.384C545.672,478.084 562.897,476.782 580.112,480.734C593.318,484.705 590.705,492.657 574.81,499.279L442.353,548.33L442.353,598.665L625.155,531.106C638.36,525.805 650.321,519.183 660.915,508.589C670.187,495.355 666.216,476.81 625.155,463.566Z" style="fill:rgb(26,26,26);"/>
</svg>
