<?xml version="1.0" encoding="UTF-8" standalone="no"?>
<!DOCTYPE svg PUBLIC "-//W3C//DTD SVG 1.1//EN" "http://www.w3.org/Graphics/SVG/1.1/DTD/svg11.dtd">
<svg width="100%" height="100%" viewBox="0 0 800 800" version="1.1" xmlns="http://www.w3.org/2000/svg" xmlns:xlink="http://www.w3.org/1999/xlink" xml:space="preserve" xmlns:serif="http://www.serif.com/" style="fill-rule:evenodd;clip-rule:evenodd;stroke-linejoin:round;stroke-miterlimit:2;">
    <circle cx="400" cy="400" r="400" style="fill:rgb(26,26,26);"/>
    <g transform="matrix(1.20742,0,0,1.20742,-82.9692,-67.8875)">
        <path d="M189.352,465.391C172.898,476.328 178.414,497.203 213.484,507.078C250.209,519.307 289.384,522.32 327.547,515.852C329.742,515.852 331.938,514.758 333.016,514.758L333.016,477.453L295.719,489.523C281.461,493.914 267.195,494.992 252.938,491.719C242,488.43 244.164,481.844 257.328,476.359L333.063,450L333.063,409.375L227.75,445.578C214.014,450.183 201.064,456.865 189.352,465.391ZM443.859,300.836L443.859,407.25C488.836,429.188 523.945,407.25 523.945,350.219C523.945,292.078 503.102,265.75 442.766,244.906C410.953,233.969 378.039,224.063 345.109,217.484L345.109,534.5L421.898,557.539L421.898,290.961C421.898,278.891 421.898,270.117 430.672,273.406C442.766,276.703 443.859,288.766 443.859,300.836ZM586.477,440.156C554.664,429.219 520.656,424.797 487.742,428.086C470.188,429.18 453.734,433.555 438.375,439.023L435.086,440.117L435.086,482.898L506.391,456.57C520.648,452.18 534.914,451.102 549.172,454.375C560.109,457.664 557.945,464.25 544.781,469.734L435.078,510.359L435.078,552.047L586.477,496.094C597.414,491.703 607.32,486.219 616.094,477.445C623.773,466.484 620.484,451.125 586.477,440.156Z" style="fill:rgb(230,230,230);fill-rule:nonzero;"/>
    </g>
</svg>
