<?xml version="1.0" encoding="UTF-8" standalone="no"?>
<!DOCTYPE svg PUBLIC "-//W3C//DTD SVG 1.1//EN" "http://www.w3.org/Graphics/SVG/1.1/DTD/svg11.dtd">
<svg width="100%" height="100%" viewBox="0 0 478 683" version="1.1" xmlns="http://www.w3.org/2000/svg" xmlns:xlink="http://www.w3.org/1999/xlink" xml:space="preserve" xmlns:serif="http://www.serif.com/" style="fill-rule:evenodd;clip-rule:evenodd;stroke-linejoin:round;stroke-miterlimit:2;">
    <g id="Artboard1" transform="matrix(1,0,0,1,-273.066,-170.666)">
        <rect x="273.066" y="170.666" width="477.867" height="682.669" style="fill:none;"/>
        <clipPath id="_clip1">
            <rect x="273.066" y="170.666" width="477.867" height="682.669"/>
        </clipPath>
        <g clip-path="url(#_clip1)">
            <g id="レイヤー-2" serif:id="レイヤー 2" transform="matrix(1,0,0,1,0.0657027,0.665694)">
                <rect id="path834" x="0" y="0" width="1024" height="1024" style="fill:none;fill-rule:nonzero;"/>
            </g>
            <g id="レイヤー-1" serif:id="レイヤー 1" transform="matrix(1,0,0,1,0.0657027,0.665694)">
                <path id="path1013" d="M409.599,341.334L512,512L409.599,682.667L614.4,682.667L716.8,853.334L409.599,853.334L273.066,614.4L409.599,341.334" style="fill:rgb(230,230,230);fill-rule:nonzero;"/>
                <path id="path1013-7" d="M614.401,682.666L512,512L614.401,341.333L409.599,341.333L307.199,170.666L614.4,170.666L750.932,409.601L614.4,682.666" style="fill:rgb(230,230,230);fill-rule:nonzero;"/>
            </g>
        </g>
    </g>
</svg>
