<?xml version="1.0" encoding="UTF-8" standalone="no"?>
<!DOCTYPE svg PUBLIC "-//W3C//DTD SVG 1.1//EN" "http://www.w3.org/Graphics/SVG/1.1/DTD/svg11.dtd">
<svg width="100%" height="100%" viewBox="0 0 750 750" version="1.1" xmlns="http://www.w3.org/2000/svg" xmlns:xlink="http://www.w3.org/1999/xlink" xml:space="preserve" xmlns:serif="http://www.serif.com/" style="fill-rule:evenodd;clip-rule:evenodd;stroke-linejoin:round;stroke-miterlimit:2;">
    <g id="Artboard1" transform="matrix(1,0,0,1,-25.0875,-20.3046)">
        <rect x="25.087" y="20.305" width="749.825" height="749.825" style="fill:none;"/>
        <g transform="matrix(1,0,0,1,-0.0125,-4.75793)">
            <path d="M323.3,511.475L323.3,288.55L519.275,400.025L323.3,511.475ZM759.2,218.375C750.35,185.85 725.35,160.7 693.575,151.8L692.9,151.65C613.075,141.5 520.75,135.7 427.05,135.7C417.525,135.7 408.025,135.75 398.55,135.875L400,135.85C391.95,135.75 382.475,135.675 372.95,135.675C279.25,135.675 186.875,141.475 96.2,152.7L107.05,151.6C74.625,160.675 49.625,185.8 40.95,217.675L40.8,218.325C30.8,271.05 25.1,331.725 25.1,393.725C25.1,395.925 25.1,398.125 25.125,400.3L25.125,399.95C25.125,401.8 25.1,404 25.1,406.2C25.1,468.2 30.825,528.85 41.75,587.675L40.8,581.575C49.65,614.1 74.65,639.25 106.425,648.15L107.1,648.3C186.925,658.45 279.25,664.25 372.95,664.25C382.45,664.25 391.95,664.2 401.45,664.075L400,664.1C408.05,664.2 417.55,664.275 427.05,664.275C520.775,664.275 613.125,658.475 703.8,647.25L692.95,648.35C725.4,639.3 750.4,614.15 759.1,582.275L759.25,581.625C769.225,528.9 774.925,468.225 774.925,406.25C774.925,404.05 774.925,401.85 774.9,399.675L774.9,400C774.9,398.15 774.925,395.95 774.925,393.75C774.925,331.75 769.2,271.1 758.275,212.275L759.225,218.375L759.2,218.375Z" style="fill:rgb(230,230,230);fill-rule:nonzero;"/>
        </g>
    </g>
</svg>
